<?xml version="1.0" encoding="utf-8"?>
<!-- Generator: Adobe Illustrator 23.0.2, SVG Export Plug-In . SVG Version: 6.00 Build 0)  -->
<svg version="1.1" id="Laag_1" xmlns="http://www.w3.org/2000/svg" xmlns:xlink="http://www.w3.org/1999/xlink" x="0px" y="0px"
	 viewBox="0 0 1000 1000" style="enable-background:new 0 0 1000 1000;" xml:space="preserve">
<style type="text/css">
	.st0{fill:#C18251;}
</style>
<g>
	<path class="st0" d="M900.3,241.2h-800V759h254.4V468.4h-62.1l38.5-100.5h156.8V759h30.8l47.6-94.8c19.6,14.3,43.5,21.4,71.7,21.4
		c22.9,0,41.9-5.9,56.7-17.6c14.9-11.8,24.6-28.8,29.1-51.2c-20.7,15-46.9,22.6-78.5,22.6c-24.1,0-46.5-5.4-67.2-16.2
		s-37.3-26-49.7-45.7s-18.6-42.2-18.6-67.7c0-28.2,7.1-53,21.2-74.7c14.1-21.6,33.4-38.2,57.9-49.8c24.5-11.6,51.5-17.4,81.3-17.4
		c38,0,71.2,7.5,99.6,22.6c28.4,15,50.5,37.4,66.3,67.1s23.7,66.2,23.7,109.4c0,46.3-9.1,86.4-27.4,120.4
		c-16.3,30.4-38.6,54.2-66.6,71.6h134.5L900.3,241.2L900.3,241.2z M289.8,526c0,21.8-7,39.3-20.9,52.5s-31.8,19.8-53.6,19.8
		s-39.7-6.6-53.6-19.8c-13.9-13.2-20.9-30.7-20.9-52.5c0-9.8,1.3-19.6,4-29.3c2.6-9.8,8.7-24.6,18.1-44.6l39.5-84.1h90.3
		l-39.5,100.5C253.1,468.4,289.8,486.4,289.8,526z"/>
</g>
</svg>
